<?xml version="1.0" encoding="UTF-8"?>
<svg id="Layer_1" xmlns="http://www.w3.org/2000/svg" version="1.1" viewBox="0 0 95.6 94.2">
  <!-- Generator: Adobe Illustrator 29.6.1, SVG Export Plug-In . SVG Version: 2.1.1 Build 9)  -->
  <path d="M74.1,47.1c1.7-2.2,3.4-4.5,4.8-6.7,9.4-14.2,11.9-25.4,6.7-30.6-8.9-8.9-32.9,5.5-51,23.6-1.4,1.4-2.9,3-4.3,4.5-1.6,1.7-3.1,3.4-4.5,5.2-1.4-1.8-2.7-3.6-3.9-5.4-8.7-13.1-9.9-21.6-7.3-24.3,2.6-2.6,11.2-1.4,24.3,7.3,1.1.8,2.7.4,3.5-.7.8-1.1.4-2.7-.7-3.5C27.3,7,16.2,4.6,11,9.8c-5.2,5.2-2.8,16.4,6.7,30.6,1.5,2.2,3.1,4.4,4.8,6.7-1.7,2.2-3.4,4.5-4.8,6.7-9.4,14.2-11.9,25.4-6.7,30.6,1.8,1.8,4.3,2.7,7.4,2.7,5.9,0,13.9-3.2,23.2-9.4,1.1-.8,1.5-2.3.7-3.5-.8-1.1-2.3-1.5-3.5-.7-13.1,8.7-21.6,9.9-24.3,7.3-2.6-2.6-1.4-11.2,7.3-24.3,1.2-1.8,2.5-3.6,3.9-5.4,1.4,1.7,3,3.5,4.5,5.2,1.4,1.6,2.9,3.1,4.3,4.5,1.5,1.5,3,3,4.5,4.3,5.3,4.9,10.6,9.1,15.9,12.6,9.3,6.2,17.3,9.4,23.2,9.4s5.6-.9,7.4-2.7c5.2-5.2,2.8-16.4-6.7-30.6-1.5-2.2-3.1-4.5-4.8-6.7h0ZM82,80.8c-2.6,2.6-11.2,1.4-24.3-7.3-5-3.3-10.1-7.4-15.3-12.1-1.4-1.3-2.9-2.7-4.4-4.2-1.4-1.4-2.8-2.9-4.2-4.4-1.8-1.9-3.5-3.9-5.1-5.8,1.6-1.9,3.3-3.9,5-5.8,1.4-1.5,2.8-3,4.2-4.4,19.3-19.3,39.1-28.4,43.9-23.6,2.6,2.6,1.4,11.2-7.3,24.3-1.2,1.8-2.5,3.6-3.9,5.4-1.4-1.7-3-3.5-4.5-5.2-1.4-1.6-2.9-3.1-4.3-4.5-1.5-1.5-3-2.9-4.5-4.3-1-.9-2.6-.9-3.5.1-.9,1-.9,2.6.1,3.5,1.4,1.3,2.9,2.8,4.4,4.2,1.4,1.4,2.8,2.9,4.2,4.4,1.8,1.9,3.4,3.9,5,5.8-1.6,1.9-3.3,3.9-5.1,5.8-1.4,1.5-2.8,3-4.2,4.4-1.4,1.4-2.9,2.9-4.4,4.2-1,.9-1.1,2.5-.1,3.5.9,1,2.5,1.1,3.5.1,1.5-1.4,3-2.9,4.5-4.3,1.4-1.4,2.9-2.9,4.3-4.5,1.6-1.7,3.1-3.5,4.6-5.2,1.4,1.8,2.7,3.6,3.9,5.5,8.7,13.1,9.9,21.6,7.3,24.3h0Z"/>
  <path d="M57.9,47.1c0,5.3-4.3,9.6-9.6,9.6s-9.6-4.3-9.6-9.6,4.3-9.6,9.6-9.6c5.3,0,9.6,4.3,9.6,9.6Z"/>
</svg>